<svg xmlns="http://www.w3.org/2000/svg" width="73" height="54" viewBox="0 0 73 54" fill="none">
<rect x="0.37793" y="0.259521" width="72.2394" height="52.9755" rx="12.0399" transform="rotate(0.138111 0.37793 0.259521)" fill="#FF9E58"/>
<path d="M39.5345 14.1095L39.5347 14.0192C39.5357 13.5979 39.6727 13.2213 39.9444 12.8909C40.2161 12.5604 40.562 12.3963 40.9834 12.3973C41.4048 12.3984 41.7813 12.5341 42.1118 12.8058C42.4422 13.0775 42.6219 13.4391 42.6509 13.8907C42.68 14.3423 42.543 14.7188 42.2413 15.0191C41.9396 15.3193 41.578 15.469 41.1566 15.4679L40.8855 15.5576L40.9755 15.6927L40.884 16.1897L40.6999 17.634C40.7599 17.6944 40.7899 17.7547 40.7897 17.8149L40.607 18.7174C40.5465 18.8377 40.4861 18.9278 40.4257 18.9879L40.3345 19.3488C40.1754 19.9869 39.9932 20.619 39.7882 21.2438L39.7877 21.4244C39.7268 21.7253 39.6817 21.966 39.6512 22.1465C39.6206 22.327 39.5139 22.6277 39.3323 23.0487C39.2114 23.2892 39.2104 23.6805 39.3295 24.2226L39.4196 24.3131C39.4192 24.4937 39.4945 24.7046 39.6444 24.9457C39.7943 25.1869 39.8685 25.3978 39.868 25.5784C39.9253 26.7825 39.8326 27.8057 39.5897 28.6479L39.769 29.1901C40.4905 29.5531 40.7003 29.9449 40.3983 30.3655L40.8494 30.5472C41.5709 30.9102 42.0818 31.2268 42.3821 31.4985C42.6825 31.7701 42.9828 32.0574 43.2831 32.3591C43.5237 32.4199 43.7041 32.5106 43.8242 32.6313L44.0949 32.7222C45.357 33.5681 46.6188 34.5945 47.88 35.8015L48.2406 36.0733L48.2404 36.1636L48.1496 36.344L48.4201 36.5252L48.5104 36.5255C48.6907 36.6463 48.811 36.7068 48.8712 36.7069L48.9615 36.7071C49.0217 36.7073 49.0819 36.6773 49.1423 36.6173L49.3231 36.5274C49.4438 36.4073 49.5644 36.3173 49.6849 36.2574L50.0461 36.2583C50.1063 36.2584 50.1063 36.2885 50.0459 36.3486L49.6843 36.5283L49.2315 37.069L49.8636 37.0705L50.4954 37.1623C50.6762 37.1026 50.8268 37.0427 50.9474 36.9828L51.3995 36.713C51.5803 36.6533 51.7607 36.7139 51.9409 36.8949L52.0312 36.8951C52.0912 36.9555 52.0609 37.0457 51.9402 37.1658L50.8542 38.1565C50.5527 38.3966 50.2814 38.5464 50.0405 38.606L48.8646 39.4159C48.8043 39.4759 48.7441 39.4758 48.684 39.4155L48.414 39.0536L48.2343 38.692L48.0087 38.3748L47.7387 38.0129L47.5142 37.7415L47.3341 37.5159L46.9736 37.2441C46.8532 37.2439 46.7328 37.2135 46.6126 37.153L45.4409 36.2472C45.2603 36.2467 45.0498 36.1559 44.8094 35.9747C43.9083 35.19 43.3075 34.7069 43.0069 34.5256L42.466 34.1631L41.3829 33.9799C41.0218 33.9188 40.5407 33.7371 39.9394 33.4346L39.2179 33.0717C38.7369 32.8297 38.4061 32.7085 38.2255 32.7081L37.8647 32.5266C37.624 32.4658 37.4436 32.4052 37.3233 32.3447L37.1432 32.1637C37.0228 32.1634 36.9023 32.1932 36.7818 32.2531L34.9736 33.1517L32.7137 34.1396C32.1106 34.6197 31.5377 35.0097 30.9952 35.3093L30.0009 35.7584L28.4632 36.8383C28.3425 36.9584 28.2221 36.9581 28.102 36.8375L27.9209 37.0176C27.7402 37.0774 27.6197 37.1072 27.5595 37.107L27.1979 37.2868L27.1975 37.4674L27.0169 37.4669L26.8356 37.7374C26.7146 37.9779 26.5939 38.1125 26.4734 38.1423C26.353 38.1721 26.2782 38.2177 26.248 38.2778C26.2249 38.3271 26.1944 38.3725 26.1573 38.4124L25.9763 38.5926L25.705 38.7725L25.2981 38.727L24.7561 38.816L24.3947 38.9054C24.0936 38.9649 23.8529 38.9185 23.6726 38.7676C23.4924 38.6167 23.3424 38.3912 23.2228 38.0899C23.1028 37.909 23.1634 37.7586 23.4045 37.6388L23.495 37.5487C23.5553 37.4887 23.6457 37.4588 23.7661 37.4591L24.3079 37.4604L25.0309 37.1913L25.3923 37.1018C25.3926 36.9814 25.423 36.8912 25.4833 36.8311C25.5436 36.7711 25.634 36.7412 25.7544 36.7415L25.7546 36.6512C25.6969 36.5394 25.6662 36.4156 25.6652 36.2898C25.6053 36.1692 25.5899 36.0789 25.6213 36.0188C25.6515 35.9587 25.6817 35.9286 25.7118 35.9287L25.7564 35.9288L25.846 36.1999C25.9055 36.5011 25.9956 36.5916 26.1163 36.4715L26.207 36.2911C26.2675 36.1708 26.3579 36.1109 26.4783 36.1111L26.6585 36.2922L26.8395 36.112L26.7494 36.0215C26.7496 35.9613 26.7798 35.9313 26.84 35.9314L27.202 35.5711C27.5039 35.2106 27.8659 34.8804 28.288 34.5804C29.1324 33.9203 30.0366 33.4107 31.0007 33.0519C31.3024 32.7516 31.6339 32.6019 31.995 32.6028C32.2369 32.182 32.5991 31.7313 33.0819 31.2509C33.504 30.9509 33.8055 30.7409 33.9864 30.621C34.1074 30.3805 34.2582 30.2604 34.4388 30.2609L34.5291 30.2611L34.7101 30.0809C34.8307 30.021 34.9211 29.961 34.9814 29.901L34.9825 29.4495C34.9833 29.1485 35.0139 28.9078 35.0746 28.7273C35.1352 28.5469 35.2859 28.4569 35.5267 28.4575L35.8888 28.0972C35.769 27.8561 35.7094 27.585 35.7101 27.2841L35.6198 27.2838C35.4999 27.1029 35.4401 26.9222 35.4406 26.7416C35.2607 26.4402 35.1409 26.1991 35.0811 26.0183L34.8102 26.0177C34.7496 26.1981 34.5988 26.3182 34.3578 26.3778L34.2671 26.5582C34.0253 26.979 33.8138 27.2939 33.6327 27.5042C33.4516 27.7145 33.1199 27.9701 32.6376 28.2699C32.3359 28.5702 32.1244 28.9008 32.0031 29.2617C31.9425 29.4422 31.942 29.6228 32.0018 29.8035L31.9111 29.9839L32.0014 29.9841C32.0011 30.1045 32.031 30.1648 32.0912 30.1649L32.1815 30.1651C32.3018 30.2256 32.3618 30.3004 32.3616 30.3907C32.3614 30.481 32.271 30.5109 32.0905 30.4804C31.9398 30.4634 31.7981 30.4 31.6852 30.2988C31.5951 30.2083 31.5193 30.1635 31.4591 30.1634L31.1876 30.4336C31.0667 30.6139 30.9462 30.6883 30.8258 30.6579C30.7055 30.6275 30.6755 30.5829 30.7359 30.5228L30.8264 30.4328C30.8869 30.3125 30.887 30.2523 30.8268 30.2522L30.104 30.431C30.0437 30.4911 29.969 30.4909 29.8788 30.4305C29.7887 30.3701 29.8033 30.3099 29.9238 30.25L30.3758 30.0705C30.3759 30.0103 30.3459 29.9801 30.2857 29.98C30.0446 30.0998 29.8037 30.1293 29.5631 30.0685L29.1118 29.9771L29.0217 29.8866C29.0219 29.8264 29.052 29.7964 29.1122 29.7965C29.3529 29.8573 29.654 29.8279 30.0154 29.7084L30.6482 29.439L31.3725 28.6281L31.4633 28.4477C31.7052 27.9667 31.9627 27.5303 32.2346 27.1396C32.4739 26.7846 32.7634 26.4661 33.0941 26.1942L33.1853 25.8332C33.3062 25.5927 33.4271 25.3823 33.548 25.202C33.6688 25.0216 33.8199 24.7812 34.0012 24.4806L34.273 24.1201C34.5147 23.7595 34.786 23.5795 35.087 23.5803L35.3585 23.31C35.4189 23.25 35.4492 23.1597 35.4495 23.0393L35.6305 22.8592L35.5404 22.7687C35.18 22.4668 35 22.1955 35.0006 21.9547C34.9414 21.5331 35.0783 21.1723 35.4102 20.8721C35.742 20.5719 36.0734 20.4366 36.4044 20.4675C36.7355 20.4984 36.9904 20.605 37.1706 20.786L37.3508 20.967C37.411 20.9672 37.441 20.9974 37.4408 21.0576L37.8016 21.239L37.801 21.5099C37.9211 21.6306 37.981 21.7211 37.9809 21.7813C38.1017 21.6009 38.2828 21.3907 38.5242 21.1505L38.9792 19.7068C38.9798 19.466 39.0406 19.2253 39.1615 18.9848L39.3428 18.7144L39.3432 18.5338L39.6167 17.4508L39.7973 17.4513L40.0708 16.3683C40.1318 16.1621 40.1324 15.9427 40.0724 15.7362L39.7133 14.8324L39.5345 14.1095Z" fill="#222222"/>
</svg>