<svg xmlns="http://www.w3.org/2000/svg" width="41" height="41" viewBox="0 0 41 41" fill="none">
<rect x="9.11465" y="8.72281" width="26.4878" height="24.0798" transform="rotate(0.138111 9.11465 8.72281)" fill="#3B3B3B"/>
<path d="M28.9807 0.34269C36.0641 0.359764 40.829 4.92836 40.8126 11.7289L40.7706 29.1265C40.7542 35.929 35.9674 40.4926 28.884 40.4756L12.4897 40.436C5.38616 40.4189 0.62138 35.8323 0.637778 29.0297L0.679715 11.6321C0.696107 4.83162 5.4829 0.286048 12.5864 0.303171L28.9807 0.34269ZM21.1673 11.8019C20.5867 11.2186 19.6235 11.2163 19.0402 11.7968L11.457 19.3035C10.8938 19.864 10.8914 20.8673 11.4519 21.4305L18.9988 28.9737C19.5793 29.557 20.5425 29.5593 21.1258 28.9788C21.7092 28.3782 21.7115 27.4351 21.131 26.8317L16.1664 21.8833L28.9086 21.9141C29.7514 21.9161 30.4153 21.2354 30.4172 20.4127C30.4193 19.5699 29.7587 18.9061 28.9159 18.9041L16.1737 18.8734L21.1621 13.929C21.4437 13.6487 21.6052 13.2478 21.6061 12.8665C21.6071 12.4873 21.4475 12.1036 21.1673 11.8019Z" fill="#FF9E58"/>
</svg>