<svg xmlns="http://www.w3.org/2000/svg" width="22" height="26" viewBox="0 0 22 26" fill="none">
<path d="M5.87661 7.77673H4.24464L3.17001 20.5271C3.17 20.5273 3.16998 20.5275 3.16997 20.5277C3.12543 21.0757 3.31783 21.6026 3.72379 22.0153L5.87661 7.77673ZM5.87661 7.77673V9.02696C5.87661 9.64021 6.39733 10.0969 6.98816 10.0969C7.57899 10.0969 8.09971 9.64021 8.09971 9.02696V7.77673H13.8462V9.02696C13.8462 9.64021 14.3669 10.0969 14.9577 10.0969C15.5486 10.0969 16.0693 9.64021 16.0693 9.02696V7.77673H17.7013L18.7758 20.5253C18.7758 20.5254 18.7758 20.5254 18.7759 20.5255C18.8206 21.0756 18.628 21.6026 18.2221 22.0153C17.8151 22.429 17.2591 22.6601 16.649 22.6601H5.2969C4.68681 22.6601 4.13085 22.429 3.72382 22.0153L5.87661 7.77673ZM20.992 20.3562L20.9919 20.355L19.907 7.48331C19.8208 6.42675 18.8838 5.6368 17.8124 5.6368H16.059C15.8896 3.10187 13.6524 1.12423 10.9729 1.12423C8.29354 1.12423 6.05633 3.10187 5.88691 5.6368H4.13356C3.0626 5.6368 2.12537 6.42612 2.03916 7.48102C2.03914 7.48122 2.03912 7.48142 2.03911 7.48161L0.953865 20.3568L0.953774 20.3579C0.860036 21.5085 1.28433 22.6481 2.10941 23.4868L2.39091 23.2099L2.10941 23.4869C2.93349 24.3245 4.09527 24.8 5.29686 24.8H16.649C17.8505 24.8 19.0123 24.3246 19.8365 23.4869L19.5513 23.2063L19.8365 23.4868C20.6616 22.648 21.0858 21.5084 20.992 20.3562ZM8.1189 5.6368C8.28306 4.3205 9.48123 3.26416 10.9729 3.26416C12.4647 3.26416 13.6628 4.32053 13.827 5.6368H8.1189Z" fill="#3C3C3C" stroke="#3C3C3C" stroke-width="0.8"/>
</svg>